# xmcd CD database file
#
# Track frame offsets:
#	150
#	12756
#	18975
#	33462
#	44597
#	57607
#	71710
#	85247
#	99246
#	111376
#	125293
#	136722
#	153000
#	168010
#	181161
#	193734
#	207439
#	222077
#
# Disc length: 3097 seconds
#
# Revision: 0
# Processed by: cddbd v1.5.2PL0 Copyright (c) Steve Scherf et al.
# Submitted via: CDex 1.70beta2
#
DISCID=f00c1712
DTITLE=George Strait - Strait Out Of The Box - Disc 01
DYEAR=1995
DGENRE=Country
TTITLE0=I Just Can't Go On Dying Like This
TTITLE1=(That Don't Change) The Way I Feel About You
TTITLE2=I Don't Want To Talk It Over Anymore
TTITLE3=Unwound
TTITLE4=Blame It On Mexico
TTITLE5=Her Goodbye Hit Me In The Heart
TTITLE6=If You're Thinking You Want A Stranger (There's One Coming Home)
TTITLE7=Any Old Love Won't Do
TTITLE8=Fool Hearted Memory
TTITLE9=Marina Del Rey
TTITLE10=I Can't See Texas From Here
TTITLE11=Heartbroke
TTITLE12=What Would Your Memory Do
TTITLE13=Amarillo By Morning
TTITLE14=I Thought I Heard You Calling My Name
TTITLE15=A Fire I Can't Put Out
TTITLE16=You Look So Good In Love
TTITLE17=80 Proof Bottle Of Tear Stopper
EXTD=YEAR: 1995
EXTT0=
EXTT1=
EXTT2=
EXTT3=
EXTT4=
EXTT5=
EXTT6=
EXTT7=
EXTT8=
EXTT9=
EXTT10=
EXTT11=
EXTT12=
EXTT13=
EXTT14=
EXTT15=
EXTT16=
EXTT17=
PLAYORDER=
